<svg width="28" height="28" viewBox="0 0 28 28" fill="none" xmlns="http://www.w3.org/2000/svg">
<rect width="28" height="28" rx="14" fill="white"/>
<g clip-path="url(#clip0_308_5561)">
<path d="M12.8371 20C11.8803 20.0003 10.9449 19.7158 10.1493 19.1824C9.35358 18.6491 8.73334 17.8908 8.36698 17.0035C8.00061 16.1162 7.90458 15.1397 8.09103 14.1977C8.27748 13.2556 8.73804 12.3902 9.41446 11.7109C10.0909 11.0316 10.9528 10.5689 11.8911 10.3814C12.8295 10.1939 13.8021 10.29 14.6861 10.6574C15.57 11.0249 16.3256 11.6473 16.8572 12.446C17.3887 13.2446 17.6725 14.1835 17.6725 15.144C17.6703 16.4309 17.1602 17.6645 16.2539 18.5747C15.3476 19.4848 14.119 19.9974 12.8371 20ZM12.8371 12.3025C12.2768 12.3022 11.729 12.4687 11.263 12.781C10.797 13.0932 10.4338 13.5373 10.2192 14.0569C10.0046 14.5764 9.94842 15.1483 10.0576 15.6999C10.1669 16.2516 10.4366 16.7584 10.8328 17.1561C11.229 17.5538 11.7338 17.8246 12.2833 17.9343C12.8328 18.0439 13.4024 17.9875 13.92 17.7721C14.4375 17.5567 14.8798 17.192 15.1909 16.7242C15.5019 16.2564 15.6678 15.7065 15.6675 15.144C15.6648 14.3912 15.3658 13.67 14.8355 13.1377C14.3053 12.6054 13.5869 12.3052 12.8371 12.3025Z" fill="#26A5FC"/>
<path d="M15.5473 13.4297C15.3491 13.4295 15.1555 13.3704 14.9908 13.2598C14.8261 13.1492 14.6977 12.9921 14.6219 12.8083C14.5461 12.6245 14.5263 12.4223 14.5649 12.2272C14.6035 12.0321 14.6988 11.8528 14.8388 11.7121L17.5272 9.01149C17.7153 8.82265 17.9705 8.71655 18.2365 8.71655C18.5025 8.71655 18.7577 8.82265 18.9458 9.01149C19.1339 9.20034 19.2396 9.45647 19.2396 9.72354C19.2396 9.99061 19.1339 10.2467 18.9458 10.4356L16.2574 13.1345C16.1642 13.2282 16.0535 13.3025 15.9316 13.3531C15.8098 13.4038 15.6792 13.4298 15.5473 13.4297Z" fill="#26A5FC"/>
<path d="M18.9974 12.5474C18.7315 12.5474 18.4766 12.4414 18.2885 12.2526C18.1005 12.0639 17.9949 11.8079 17.9949 11.541V10.0129H16.3792C16.1133 10.0129 15.8583 9.90683 15.6703 9.71808C15.4823 9.52934 15.3767 9.27335 15.3767 9.00643C15.3767 8.73951 15.4823 8.48352 15.6703 8.29478C15.8583 8.10603 16.1133 8 16.3792 8H18.9974C19.2633 8 19.5183 8.10603 19.7063 8.29478C19.8943 8.48352 19.9999 8.73951 19.9999 9.00643V11.541C19.9999 11.8079 19.8943 12.0639 19.7063 12.2526C19.5183 12.4414 19.2633 12.5474 18.9974 12.5474Z" fill="#26A5FC"/>
</g>
<defs>
<clipPath id="clip0_308_5561">
<rect width="12" height="12" fill="white" transform="translate(8 8)"/>
</clipPath>
</defs>
</svg>
